PathFileType	4	(X/Y/Z)	D:\RESEARCH\STW_dataset\Extracted\S23\S23\Mocap\trcResults\stw1.trc
DataRate	CameraRate	NumFrames	NumMarkers	Units	OrigDataRate	OrigDataStartFrame	OrigNumFrames
200.000000	200.000000	4	32	M	200.000000	931	1065
Frame#	Time	RASIS			LASIS			RPSIS			LPSIS			RTH1			RTH2			RTH3			RTH4			RFLE			LTH1			LTH2			LTH3			LTH4			LFLE			RSK1			RSK2			RSK3			RSK4			RFAL			LSK1			LSK2			LSK3			LSK4			LFAL			RFCC			RFMT1			RFMT2			RFMT5			LFCC			LFMT1			LFMT2			LFMT5			
		X1	Y1	Z1	X2	Y2	Z2	X3	Y3	Z3	X4	Y4	Z4	X5	Y5	Z5	X6	Y6	Z6	X7	Y7	Z7	X8	Y8	Z8	X9	Y9	Z9	X10	Y10	Z10	X11	Y11	Z11	X12	Y12	Z12	X13	Y13	Z13	X14	Y14	Z14	X15	Y15	Z15	X16	Y16	Z16	X17	Y17	Z17	X18	Y18	Z18	X19	Y19	Z19	X20	Y20	Z20	X21	Y21	Z21	X22	Y22	Z22	X23	Y23	Z23	X24	Y24	Z24	X25	Y25	Z25	X26	Y26	Z26	X27	Y27	Z27	X28	Y28	Z28	X29	Y29	Z29	X30	Y30	Z30	X31	Y31	Z31	X32	Y32	Z32	

932	4.655	1.315473510742188	0.9374485473632813	-0.04081647491455073	1.34066748046875	0.9410452270507813	-0.3286908569335937	1.141588012695313	0.9686821899414063	-0.1773749694824218	1.146263793945312	0.9682510375976563	-0.2306286010742187	1.206564819335938	0.6991709594726563	-0.01817918014526363	1.288629272460938	0.6994417114257813	-0.00418196105957027	1.29656787109375	0.6038450927734376	-0.006486826419830285	1.213348388671875	0.5999400634765625	-0.02101585578918453	1.26065625	0.4356356811523437	-0.02205613517761228	1.3487900390625	0.6880574340820312	-0.3693217163085937	1.415162719726563	0.7235424194335938	-0.3379479370117187	1.45133203125	0.6305336303710938	-0.3143370971679687	1.382611572265625	0.5947696533203125	-0.3482243347167968	1.424016845703125	0.4413348083496094	-0.3192693176269532	1.180690063476562	0.3873463134765625	-0.01320995521545408	1.21711767578125	0.3355577087402344	-0.01545968151092527	1.146095092773437	0.2795818176269531	-0.022834020614624	1.10848388671875	0.3301338806152344	-0.02257477760314939	0.9490971069335937	0.1746641235351563	-0.07118840026855468	1.378563720703125	0.2853193054199219	-0.3288085632324219	1.438083374023438	0.2946676940917969	-0.3124530334472656	1.443606811523438	0.2036608276367188	-0.2946043090820313	1.388390258789063	0.1976949615478516	-0.3112601318359375	1.391554565429687	0.04051583099365236	-0.2899539489746094	0.9142888793945313	0.1938966674804687	-0.1401888122558594	1.000255126953125	0.02340267372131348	-0.1087864151000977	0.9844359130859375	0.03014549255371094	-0.06564079284667969	0.9512640991210938	0.05143653106689453	-0.04020959854125977	1.336973999023437	0.03056737327575685	-0.23328173828125	1.532765869140625	0.02203626251220705	-0.22687353515625	1.522834594726562	0.01929465866088869	-0.2710141296386719	1.503305053710938	0.006121593952178974	-0.3146512451171875	
933	4.66	1.320201049804687	0.9378060913085937	-0.04136848449707026	1.345992309570313	0.9417266845703125	-0.3294889526367187	1.147179321289062	0.9692527465820313	-0.1780244598388671	1.151808471679687	0.9689677734375001	-0.2310673217773437	1.2134384765625	0.6990777587890625	-0.01881655693054195	1.295420532226563	0.7003441772460938	-0.00537917900085445	1.305174194335938	0.6050349731445313	-0.006464168548583948	1.221577514648438	0.5996553955078125	-0.02132613945007321	1.270841918945313	0.4359530029296875	-0.02220015525817868	1.353132568359375	0.6884237060546875	-0.3697548522949218	1.419497924804688	0.723206298828125	-0.3386336669921874	1.45532666015625	0.6300607910156251	-0.3150304870605468	1.386105834960937	0.5949277954101563	-0.3487019348144531	1.426329345703125	0.4413607788085938	-0.319542236328125	1.191780151367188	0.3881331481933594	-0.01296199512481687	1.2278369140625	0.3356358337402344	-0.01554174709320066	1.158100219726563	0.2796022338867187	-0.01975402259826659	1.11999365234375	0.3322721557617188	-0.02166045570373533	0.9583122558593751	0.1783692474365234	-0.07197447204589842	1.37988427734375	0.285620361328125	-0.3289150085449219	1.439284912109375	0.2943506469726563	-0.3129043884277344	1.44437353515625	0.203376937866211	-0.2951151428222656	1.389118041992188	0.1978159942626953	-0.3114027099609375	1.391740234375	0.04064398574829103	-0.2896560974121094	0.9245113525390625	0.1974339599609375	-0.1411947174072266	1.010991821289063	0.02651289176940919	-0.1059148712158203	0.9940377197265625	0.03424495697021485	-0.06358567428588867	0.9595245361328125	0.05532229995727539	-0.03956005096435547	1.33698291015625	0.03058693504333498	-0.2332931365966797	1.532705200195313	0.0220054397583008	-0.226872787475586	1.522794067382812	0.01925337982177736	-0.2710213012695313	1.503753295898437	0.00654272699356081	-0.3147493896484375	
934	4.665	1.324892456054688	0.9384287719726563	-0.04164521026611322	1.351220092773437	0.9423721313476563	-0.3301981201171875	1.15193359375	0.9699379272460937	-0.1785236511230468	1.15644873046875	0.9700648193359375	-0.2321488952636718	1.22013623046875	0.6987017211914063	-0.01927364540100093	1.30234423828125	0.701583740234375	-0.004547134876251178	1.312727661132812	0.6058057861328126	-0.006506430149078332	1.229946655273437	0.5996432495117188	-0.02115865707397457	1.28132958984375	0.4364546508789063	-0.02197417259216306	1.35732958984375	0.6887684326171876	-0.3702235412597656	1.423873901367188	0.7230104370117187	-0.3392843627929687	1.459136352539063	0.6296572265625	-0.3157277832031249	1.389330078125	0.594869140625	-0.3490580749511718	1.428480346679688	0.4412228698730469	-0.3200717468261719	1.20299365234375	0.38831640625	-0.01324249553680418	1.238873046875	0.3359378662109375	-0.01545849037170408	1.168864379882812	0.2807696228027344	-0.01863309860229491	1.130698120117188	0.33348193359375	-0.02193179130554197	0.9678118286132813	0.1818315887451172	-0.07294920349121092	1.381058471679687	0.285851806640625	-0.328937255859375	1.440487915039063	0.2940027465820312	-0.3133235778808594	1.445048461914062	0.2030081329345703	-0.2955469665527344	1.389820068359375	0.1979574432373047	-0.3115081787109375	1.391560546875	0.04052132034301759	-0.2899937744140625	0.9348619995117188	0.2003253326416016	-0.1425829467773438	1.022314025878906	0.02967062950134278	-0.1031818389892578	1.003991516113281	0.0371303062438965	-0.06107162857055664	0.9681881713867188	0.05867881011962891	-0.0384982566833496	1.33701611328125	0.03063283729553224	-0.2332479400634766	1.53271826171875	0.02196360778808595	-0.2268982086181641	1.524236572265625	0.02016854858398439	-0.2708718872070313	1.503278930664063	0.00599227237701418	-0.3147931823730469	
935	4.67	1.329546142578125	0.9388621215820313	-0.04198817825317377	1.356304321289062	0.9429293823242187	-0.3308557739257812	1.157208984375	0.9704006958007813	-0.1790807037353515	1.161629028320313	0.9706231689453125	-0.2324006347656249	1.227222290039063	0.6989387817382813	-0.01973861312866207	1.309251708984375	0.7023534545898438	-0.00493156576156612	1.321152709960937	0.6070174560546875	-0.006209327697753869	1.237863159179688	0.5998300170898437	-0.02141932106018063	1.291962036132813	0.4375576477050782	-0.02157671165466306	1.36122216796875	0.6890943603515625	-0.3706721496582031	1.42809912109375	0.7228768920898437	-0.3399342346191406	1.462796752929687	0.6292811279296875	-0.3163600463867187	1.392714965820313	0.5950819091796875	-0.3495852355957031	1.430506958007812	0.44101220703125	-0.3205796813964844	1.21408642578125	0.388909912109375	-0.01302439975738523	1.249643676757813	0.3369445190429687	-0.01574470901489256	1.175971069335938	0.2789139099121094	-0.02148106956481932	1.14139892578125	0.3348143615722656	-0.02214205169677732	0.97796484375	0.1849501190185547	-0.07405181121826171	1.382309204101563	0.2861299743652344	-0.3290789184570312	1.44161376953125	0.2937210998535156	-0.3137388000488281	1.44562109375	0.2027459259033204	-0.2960046081542969	1.390390625	0.198014389038086	-0.3116136779785156	1.39148681640625	0.04047970962524416	-0.2899871826171875	0.9452139892578125	0.2024523468017578	-0.1441619720458985	1.033520385742188	0.03205456924438477	-0.1003503723144531	1.014821960449219	0.04091638565063477	-0.05879184722900391	0.9788092651367187	0.06365694808959961	-0.03625100326538085	1.3369306640625	0.03065867042541505	-0.2332431182861328	1.532668212890625	0.02194504356384279	-0.2269265441894531	1.524221923828125	0.02016262245178225	-0.2709059143066406	1.50326953125	0.005983271598815938	-0.3148383178710937	
